Coordinates
version=1
nRows=20
nColumns=38
inDegrees=no

Units are S.I. units (second, meters, Newtons, ...)
If the header above contains a line with 'inDegrees', this indicates whether rotational values are in degrees (yes) or radians (no).

endheader
time	pelvis_tilt	pelvis_list	pelvis_rotation	pelvis_tx	pelvis_ty	pelvis_tz	hip_flexion_r	hip_adduction_r	hip_rotation_r	knee_angle_r	ankle_angle_r	subtalar_angle_r	mtp_angle_r	hip_flexion_l	hip_adduction_l	hip_rotation_l	knee_angle_l	ankle_angle_l	subtalar_angle_l	mtp_angle_l	lumbar_extension	lumbar_bending	lumbar_rotation	arm_flex_r	arm_add_r	arm_rot_r	elbow_flex_r	pro_sup_r	wrist_flex_r	wrist_dev_r	arm_flex_l	arm_add_l	arm_rot_l	elbow_flex_l	pro_sup_l	wrist_flex_l	wrist_dev_l
0.47	0.521607	1.46365	0.945142	0.675271	0.9208	1.01913	0.0328138	0.113719	-0.0146137	0.501246	0.252619	0	0	0.541523	-0.193172	-0.284156	0.508171	0.191552	0	0	0.0351833	0.110949	0.177619	0.0966207	-0.523394	0.478021	0.839786	1.10366	0	0	-0.100548	-0.195994	0.637874	0.242168	1.32851	0	0
0.48	0.511656	1.46459	0.94822	0.675467	0.932158	1.01744	0.0224022	0.109733	-0.0137448	0.505176	0.255981	0	0	0.536975	-0.191707	-0.288931	0.48937	0.197334	0	0	0.0355947	0.106195	0.183548	0.0987276	-0.522951	0.47499	0.843375	1.10896	0	0	-0.106385	-0.194349	0.63613	0.231819	1.32353	0	0
0.49	0.503468	1.46699	0.9491	0.675636	0.943606	1.01592	0.0110113	0.104769	-0.0132014	0.509701	0.258612	0	0	0.531325	-0.19007	-0.292976	0.47618	0.200805	0	0	0.0344336	0.100555	0.190071	0.100548	-0.522045	0.472642	0.845699	1.11462	0	0	-0.111409	-0.192907	0.635229	0.221479	1.31851	0	0
0.5	0.497003	1.47046	0.94831	0.675732	0.95517	1.01453	-0.00121761	0.0991553	-0.0128242	0.514816	0.260427	0	0	0.525212	-0.188245	-0.296695	0.469027	0.202367	0	0	0.0323184	0.0943047	0.196579	0.101657	-0.520244	0.469585	0.846692	1.11944	0	0	-0.115794	-0.191667	0.635169	0.211259	1.31344	0	0
0.51	0.494772	1.47461	0.943492	0.67572	0.966898	1.01331	-0.0137769	0.0928741	-0.0122373	0.520376	0.260973	0	0	0.518794	-0.186571	-0.300211	0.467929	0.202348	0	0	0.0295776	0.0879455	0.20291	0.101758	-0.51766	0.465559	0.846394	1.12302	0	0	-0.119728	-0.190616	0.636045	0.201411	1.30849	0	0
0.52	0.498669	1.48051	0.932466	0.675586	0.978814	1.01234	-0.0275781	0.0854167	-0.0116848	0.527408	0.260187	0	0	0.510681	-0.184946	-0.3054	0.47273	0.200618	0	0	0.0250563	0.0810278	0.209528	0.10065	-0.514469	0.46021	0.845277	1.12744	0	0	-0.122853	-0.189449	0.638771	0.191381	1.3016	0	0
0.53	0.497991	1.48504	0.926867	0.675307	0.990949	1.01133	-0.0396165	0.0783209	-0.0103454	0.534629	0.257632	0	0	0.504758	-0.183511	-0.307879	0.483151	0.197248	0	0	0.0227945	0.0746259	0.215192	0.0980361	-0.511066	0.455188	0.843433	1.13022	0	0	-0.126749	-0.188945	0.642019	0.182884	1.29449	0	0
0.54	0.492655	1.48907	0.926191	0.67495	1.00337	1.01035	-0.0505116	0.0710089	-0.00807438	0.542691	0.252755	0	0	0.499322	-0.182099	-0.309068	0.497566	0.190918	0	0	0.0220673	0.0683453	0.22048	0.0936801	-0.507168	0.450077	0.840964	1.13396	0	0	-0.130958	-0.188875	0.647844	0.175074	1.28373	0	0
0.55	0.470298	1.49146	0.943007	0.6745	1.01611	1.0093	-0.0583041	0.0632884	-0.00511657	0.552076	0.246422	0	0	0.49513	-0.17957	-0.306963	0.512204	0.180608	0	0	0.0248592	0.0620179	0.225097	0.0878901	-0.502962	0.447156	0.837197	1.13738	0	0	-0.136125	-0.189316	0.653622	0.168325	1.27206	0	0
0.56	0.425488	1.49408	0.982393	0.673936	1.02906	1.00844	-0.0639668	0.053652	-0.00146533	0.563754	0.238059	0	0	0.490617	-0.175259	-0.30822	0.524775	0.165244	0	0	0.029124	0.0538504	0.229415	0.0817411	-0.49742	0.445328	0.830709	1.13887	0	0	-0.14167	-0.190399	0.659601	0.162249	1.25981	0	0
0.57	0.350176	1.49806	1.05248	0.673306	1.04204	1.00806	-0.068273	0.0417068	0.00438374	0.578342	0.227446	0	0	0.486164	-0.169763	-0.317617	0.535979	0.146943	0	0	0.033251	0.0423221	0.233011	0.0772613	-0.489446	0.445316	0.819468	1.13955	0	0	-0.146922	-0.192414	0.667972	0.15669	1.24463	0	0
0.58	0.244971	1.502	1.15368	0.672675	1.05488	1.00814	-0.0703221	0.0295187	0.0138523	0.596118	0.215462	0	0	0.483791	-0.164556	-0.327649	0.549683	0.131205	0	0	0.0373611	0.0283148	0.234843	0.0751372	-0.479572	0.448748	0.803714	1.14345	0	0	-0.151235	-0.195115	0.676477	0.151486	1.22934	0	0
0.59	0.118961	1.50405	1.27812	0.671927	1.06761	1.00855	-0.0680674	0.01827	0.0243472	0.61935	0.201086	0	0	0.483083	-0.15933	-0.330061	0.564801	0.11485	0	0	0.0426265	0.013542	0.233962	0.0735067	-0.46787	0.453023	0.784931	1.14951	0	0	-0.155022	-0.198465	0.686158	0.147208	1.21	0	0
0.6	-0.000984414	1.50648	1.39855	0.670959	1.08038	1.00941	-0.065331	0.00796942	0.034309	0.645522	0.183192	0	0	0.481751	-0.156047	-0.336124	0.585982	0.103175	0	0	0.0452514	-0.000272103	0.232496	0.0689868	-0.457023	0.453847	0.768536	1.15466	0	0	-0.156941	-0.201826	0.696956	0.14362	1.19134	0	0
0.61	-0.10835	1.51053	1.50759	0.66976	1.09324	1.01065	-0.0631019	-0.000479508	0.0450313	0.673876	0.161105	0	0	0.478843	-0.156047	-0.35211	0.613765	0.0971053	0	0	0.0446808	-0.0116964	0.230215	0.062015	-0.448259	0.452698	0.755478	1.15916	0	0	-0.15755	-0.204536	0.707068	0.140715	1.17631	0	0
0.62	-0.211889	1.51252	1.61503	0.668258	1.10599	1.01197	-0.0561803	-0.00709783	0.0559516	0.705851	0.131948	0	0	0.476541	-0.154066	-0.364406	0.638423	0.0923109	0	0	0.0455265	-0.021256	0.225983	0.0528072	-0.440169	0.449041	0.743615	1.16288	0	0	-0.157512	-0.207412	0.721707	0.138753	1.15933	0	0
0.63	-0.296748	1.51162	1.70606	0.666477	1.11855	1.0132	-0.0433506	-0.0120095	0.065584	0.741311	0.0972743	0	0	0.474427	-0.148328	-0.366608	0.654608	0.0882376	0	0	0.0487482	-0.02898	0.220083	0.0411959	-0.433154	0.444269	0.733588	1.16376	0	0	-0.156723	-0.210281	0.737477	0.137644	1.14272	0	0
0.64	-0.351787	1.50842	1.76847	0.664504	1.13095	1.01428	-0.0250915	-0.0153786	0.0738873	0.779504	0.0564303	0	0	0.471877	-0.140774	-0.363587	0.663277	0.0850347	0	0	0.0541776	-0.0346556	0.213106	0.0273701	-0.426909	0.438304	0.725648	1.15865	0	0	-0.155132	-0.212861	0.754009	0.137413	1.12658	0	0
0.65	-0.382107	1.50348	1.80677	0.662417	1.14313	1.01516	-0.00231178	-0.0177249	0.0809178	0.819148	0.010364	0	0	0.468792	-0.132317	-0.359285	0.66618	0.0827707	0	0	0.0613632	-0.0389232	0.205334	0.012589	-0.421649	0.432791	0.719164	1.14893	0	0	-0.152821	-0.215703	0.772109	0.138246	1.11294	0	0
0.66	-0.400081	1.49769	1.83251	0.66031	1.15501	1.01588	0.0236408	-0.0194795	0.0873789	0.859492	-0.0379452	0	0	0.465243	-0.123888	-0.35725	0.666616	0.0817639	0	0	0.068934	-0.042531	0.197351	-0.00176253	-0.417414	0.429959	0.713621	1.13743	0	0	-0.149606	-0.218746	0.789452	0.140457	1.10046	0	0
